# xmcd
#
# Track frame offsets: 
#        150
#        13851
#        30510
#        45848
#        63045
#        80031
#        98899
#        119968
#        132882
#        148866
#        166146
#        179547
#
# Disc length: 2821 seconds
#
# Revision: 5
# Processed by: cddbd v1.5.2PL0 Copyright (c) Steve Scherf et al.
# Submitted via: ExactAudioCopyFreeDBPlugin 1.0
#
DISCID=a10b030c
DTITLE=The Carpenters - Singles 1974 - 1978
DYEAR=1996
DGENRE=Pop
TTITLE0=Sweet Sweet Smile
TTITLE1=Jambalaya (On the Bayou)
TTITLE2=Can't Smile Without You
TTITLE3=I Won't Last a Day Without You
TTITLE4=All You Get From Love Is a Love Song
TTITLE5=Only Yesterday
TTITLE6=Solitaire
TTITLE7=Please Mr. Postman
TTITLE8=I Need To Be In Love
TTITLE9=Happy
TTITLE10=There's A Kind Of Hush
TTITLE11=Calling Occupants Of Interplanetary Craft
EXTD=ID3G:   0
EXTT0=
EXTT1=
EXTT2=
EXTT3=
EXTT4=
EXTT5=
EXTT6=
EXTT7=
EXTT8=
EXTT9=
EXTT10=
EXTT11=
PLAYORDER=
